<?xml version="1.0" encoding="utf-8"?>
<!-- Generator: Adobe Illustrator 25.2.3, SVG Export Plug-In . SVG Version: 6.00 Build 0)  -->
<svg version="1.1" id="Layer_1" xmlns="http://www.w3.org/2000/svg" xmlns:xlink="http://www.w3.org/1999/xlink" x="0px" y="0px"
	 viewBox="0 0 42 142" style="enable-background:new 0 0 42 142;" xml:space="preserve">
<style type="text/css">
	.st0{fill:#FFFFFF;}
	.st1{fill:none;}
</style>
<path class="st0" d="M10,5v26c0,2.8-2.2,5-5,5l0,0c-2.8,0-5-2.2-5-5V5c0-2.8,2.2-5,5-5l0,0C7.8,0,10,2.2,10,5z"/>
<path class="st0" d="M13,36c2.8,0,5-2.2,5-5s-2.2-5-5-5H0v10H13z"/>
<path class="st1" d="M8,96c0,4.4-3.6,8-8,8v-8v-8V0h8V96z"/>
<polygon class="st1" points="21,0 0,47.3 0,94.7 21,142 42,94.7 42,47.3 "/>
</svg>
