<svg id="Layer_2" data-name="Layer 2" xmlns="http://www.w3.org/2000/svg" viewBox="0 0 59.21 29.51"><rect width="59.21" height="29.51" fill="#dfe6f7" opacity="0.64"/><path d="M11.24,16.09a5.8,5.8,0,0,1-1.39.51,6.43,6.43,0,0,1-1.54.17,5.28,5.28,0,0,1-4.38-1.88A8.62,8.62,0,0,1,2.42,9.43,8.63,8.63,0,0,1,3.93,4,5.28,5.28,0,0,1,8.31,2.07a7.15,7.15,0,0,1,1.55.17,5.86,5.86,0,0,1,1.38.52V5.87a5.37,5.37,0,0,0-1.4-1,3.28,3.28,0,0,0-1.4-.31A2.57,2.57,0,0,0,6.12,5.81a6.78,6.78,0,0,0-.78,3.62A6.77,6.77,0,0,0,6.12,13a2.59,2.59,0,0,0,2.32,1.22A3.28,3.28,0,0,0,9.84,14a5.37,5.37,0,0,0,1.4-1Zm2.15.41V2.33h2.8V14h6V16.5Zm11-11.7V2.33H32.8V4.8H30V14H32.8V16.5H24.36V14h2.82V4.8ZM43.24,16.09a5.88,5.88,0,0,1-1.4.51,6.38,6.38,0,0,1-1.54.17,5.26,5.26,0,0,1-4.37-1.88,8.56,8.56,0,0,1-1.51-5.46A8.57,8.57,0,0,1,35.93,4,5.26,5.26,0,0,1,40.3,2.07a7.08,7.08,0,0,1,1.55.17,5.78,5.78,0,0,1,1.39.52V5.87a5.37,5.37,0,0,0-1.4-1,3.31,3.31,0,0,0-1.4-.31,2.56,2.56,0,0,0-2.32,1.22,6.68,6.68,0,0,0-.79,3.62A6.67,6.67,0,0,0,38.12,13a2.58,2.58,0,0,0,2.32,1.22,3.31,3.31,0,0,0,1.4-.31,5.37,5.37,0,0,0,1.4-1ZM45.4,2.33h2.8v5.6l4.39-5.6h3.17L51.29,7.91l4.63,8.59H52.8l-3.36-6.38L48.2,11.7v4.8H45.4ZM7.17,20.82H3.89v1.66h3v1.34h-3v3.36H2.37v-7.7h4.8Zm2,2.52a5.31,5.31,0,0,1,.68-3,2.28,2.28,0,0,1,2-1,2.28,2.28,0,0,1,2,1,5.31,5.31,0,0,1,.68,3,5.32,5.32,0,0,1-.68,3,2.28,2.28,0,0,1-2,1,2.28,2.28,0,0,1-2-1A5.32,5.32,0,0,1,9.19,23.34Zm2.7-2.63a.88.88,0,0,0-.85.62,5.4,5.4,0,0,0-.27,2,5.38,5.38,0,0,0,.27,2,.89.89,0,0,0,1.7,0,5.38,5.38,0,0,0,.27-2,5.4,5.4,0,0,0-.27-2A.88.88,0,0,0,11.89,20.71Zm8.53,2.84a.78.78,0,0,1,.4.21,2.72,2.72,0,0,1,.41.65l1.39,2.77H21L20,25.24,19.91,25q-.4-.87-1-.87h-.48v3H17v-7.7h2.19a3.43,3.43,0,0,1,2.14.53,2.08,2.08,0,0,1,.64,1.71A1.94,1.94,0,0,1,21.54,23,1.66,1.66,0,0,1,20.42,23.55Zm-2-2.79v2.1h.72a1.33,1.33,0,0,0,.89-.24,1.07,1.07,0,0,0,.27-.81,1,1,0,0,0-.27-.8,1.26,1.26,0,0,0-.89-.25Zm9-1.28h1.82l.92,3.38.91-3.38H32.9v7.7H31.59V21l-.81,3.36H29.57L28.74,21v6.16H27.43Zm8,3.86a5.31,5.31,0,0,1,.68-3,2.52,2.52,0,0,1,4,0,5.31,5.31,0,0,1,.69,3,5.32,5.32,0,0,1-.69,3,2.53,2.53,0,0,1-4,0A5.32,5.32,0,0,1,35.42,23.34Zm2.7-2.63a.88.88,0,0,0-.85.62,5.4,5.4,0,0,0-.27,2,5.38,5.38,0,0,0,.27,2,.89.89,0,0,0,1.7,0,5.38,5.38,0,0,0,.27-2,5.4,5.4,0,0,0-.27-2A.87.87,0,0,0,38.12,20.71ZM47,23.54a.76.76,0,0,1,.4.22,3.09,3.09,0,0,1,.41.65l1.39,2.77H47.52l-.93-1.95c0-.05-.06-.13-.11-.22q-.4-.87-1-.87H45v3H43.52v-7.7h2.19a3.4,3.4,0,0,1,2.13.52,2.09,2.09,0,0,1,.65,1.72A2,2,0,0,1,48.11,23,1.66,1.66,0,0,1,47,23.54Zm-2-2.78v2.1h.71a1.34,1.34,0,0,0,.9-.25,1.34,1.34,0,0,0,0-1.61,1.35,1.35,0,0,0-.9-.24Zm11,6.42h-4.8v-7.7h4.8v1.34H52.78v1.66h3v1.34h-3v2h3.28Z" fill="#900"/></svg>