<?xml version="1.0" encoding="utf-8"?>
<!-- Generator: Adobe Illustrator 25.1.0, SVG Export Plug-In . SVG Version: 6.00 Build 0)  -->
<svg version="1.1" id="Layer_1" xmlns="http://www.w3.org/2000/svg" xmlns:xlink="http://www.w3.org/1999/xlink" x="0px" y="0px"
	 viewBox="0 0 383.7 159.5" style="enable-background:new 0 0 383.7 159.5;" xml:space="preserve">
<style type="text/css">
	.st0{fill:#FFFFFF;}
</style>
<path class="st0" d="M191.8,0C116.9,0,49,30.5,0,79.7c0.1,0.1,0.2,0.2,0.4,0.4h49.6c1.3,0.9,2.5,1.9,3.8,2.8
	c18,13.5,39.2,24.4,62.5,31.9c23.3,7.5,48.9,11.7,75.6,11.7c53.5,0,102-16.6,138.1-43.6c1.3-0.9,2.6-1.8,3.8-2.8h49.6
	c0.1-0.1,0.2-0.2,0.4-0.4C334.7,30.5,266.8,0,191.8,0z"/>
<path d="M333.8,80.1h49.6c-24.5,24.5-53.7,44.4-86.1,58.1c-32.4,13.7-68,21.3-105.4,21.3c-74.8,0-142.5-30.3-191.5-79.4h49.6
	c1.3,0.9,2.5,1.9,3.8,2.8c18,13.5,39.2,24.4,62.5,31.9c23.3,7.5,48.8,11.7,75.6,11.7c53.4,0,102-16.6,138.1-43.6
	C331.2,82,332.5,81,333.8,80.1z"/>
</svg>
