<?xml version="1.0" encoding="utf-8"?>
<!-- Generator: Adobe Illustrator 25.2.1, SVG Export Plug-In . SVG Version: 6.00 Build 0)  -->
<svg version="1.1" id="Layer_1" xmlns="http://www.w3.org/2000/svg" xmlns:xlink="http://www.w3.org/1999/xlink" x="0px" y="0px"
	 viewBox="0 0 1758.4 2400.6" style="enable-background:new 0 0 1758.4 2400.6;" xml:space="preserve">
<style type="text/css">
	.st0{fill:#FFFFFF;}
</style>
<path class="st0" d="M1758.4,166.7l-429.3-3.8l-7,32l-205.2,936.5L924.8,198L884.1,0l-41.5,197.9C808,362.8,773.8,530.7,740.8,693.1
	c-29.5,145-59.7,293.4-90.6,441.5c-12-53.8-24-107.4-35.8-160.1c-57.1-254.6-116.1-517.9-166.9-778l-6.7-34.1l-34.8,0.2
	c-43.7,0.2-88.1,1.1-130.9,2c-48.5,1-98.6,2-147.7,2c-18.8,0-36.3-0.1-53.3-0.4H0l13.5,50.1c0.5,4.7,1.7,9.3,3.7,13.8l223,829.9
	c-4.7,0-9.5,0-14.2,0c-21.7,0-44.2,0-66.6,0.1l-55.8,0.1l15.5,53.6l362.7,1251.6c4.1,17.3,9.9,35.5,9.9,35.5h348.7l8.8-38.4
	l35.3-154.8l26.8,123.8l-0.2,0.7l2.5,11.3c0.3,1.5,0.9,4.3,0.9,4.3l13.6,53.1h341.2l6.5-23.9c0,0,4.6-10.3,5.5-16l360.5-1238.1
	c1.8-3.9,2.9-8,3.5-12.1l14.7-50.6h-73.7l-71.4-0.8L1736,234.4c1.1-2.6,2.1-5.4,2.8-8.5l3.3-6.1l0.7-1.1l0-0.1L1758.4,166.7z"/>
</svg>
