<?xml version="1.0" encoding="utf-8"?>
<!-- Generator: Adobe Illustrator 25.2.3, SVG Export Plug-In . SVG Version: 6.00 Build 0)  -->
<svg version="1.1" id="Layer_1" xmlns="http://www.w3.org/2000/svg" xmlns:xlink="http://www.w3.org/1999/xlink" x="0px" y="0px"
	 viewBox="0 0 158.7 165.5" style="enable-background:new 0 0 158.7 165.5;" xml:space="preserve">
<style type="text/css">
	.st0{fill:#FFFFFF;stroke:#000000;stroke-miterlimit:10;}
</style>
<path id="ctr" class="st0" d="M0.5,11.1c0,0,1.7-8.3,9.9-10.5s23.4,23.2,23.8,30.2c0.4,7-2.6,12.2-6.9,14.4
	c-4.3,2.1-7.8,6.5-2.8,5.9s2.9-1,5.7,1.2C33,54.5,36.7,68,41.5,78.9C48.4,94.7,66,116.6,67.3,124c1,5.8,1,7.6,0.8,9.6
	c-0.2,2.2-5,11.4,9,3.7c2.4-1.3,80.5-8.6,81.1,1c0.4,6.9,0.5,15.3-14.5,19.1c-6.9,1.7-76.6,14.9-85,1.7
	c-8.4-13.2-21.1-30.4-26.9-43.8C25.8,102,17.9,86,13.4,69.3c-4.5-16.7-3.3-13.1-7.3-31.9C2,18.6,0.5,11.1,0.5,11.1z"/>
<path id="backFlank" class="st0" d="M0,50c2.3-0.1,8.6,0.3,11.2,2.6c6.4,5,7.5,64.3,6.9,70.3c-0.2,17.3-17.9,29.5-17.9,29.5L0,50z"
	/>
<path id="baseFlank" class="st0" d="M0,165.1c0,0,15.6,0,18.2-5.2c6.4-10.7,2.1-86.4,1.5-92.3C19.5,50.2,0.2,41.4,0.2,41.4L0,165.1z
	"/>
<path id="baseFront" class="st0" d="M20.4,50.4c-0.2-1.1-0.9-2.1-1.8-3C13.8,41,3.2,41.3,0.7,41.5c-0.4,0-0.7-0.1-0.7-0.1l0.1,73.2
	L0,165.1c0,0,0.3,0,0.7-0.1c2.5,0.2,13.1,0.5,17.9-5.9c0.9-0.9,1.6-1.9,1.8-3c1.2-11.6,1.5-27.1,1.4-41.5
	C21.9,100.2,21.6,62,20.4,50.4z"/>
</svg>
