<?xml version="1.0" encoding="utf-8"?>
<!-- Generator: Adobe Illustrator 25.2.1, SVG Export Plug-In . SVG Version: 6.00 Build 0)  -->
<svg version="1.1" id="Layer_1" xmlns="http://www.w3.org/2000/svg" xmlns:xlink="http://www.w3.org/1999/xlink" x="0px" y="0px"
	 viewBox="0 0 612 792" style="enable-background:new 0 0 612 792;" xml:space="preserve">
<style type="text/css">
	.st0{fill:#A9C0DC;}
	.st1{fill:#C2E2E5;}
</style>
<path class="st0" d="M8,784h596V8H8V784z M21.3,778.5C21.3,778.5,21.2,778.5,21.3,778.5L21.3,778.5c-2.5,0-4.5-2-4.5-4.5
	s2-4.5,4.5-4.5s4.5,2,4.5,4.5S23.7,778.5,21.3,778.5z M21.3,760.5C21.3,760.5,21.3,760.5,21.3,760.5L21.3,760.5
	c-2.5,0-4.5-2-4.5-4.5s2-4.5,4.5-4.5s4.5,2,4.5,4.5C25.8,758.5,23.8,760.5,21.3,760.5z M590.8,13.5c2.5,0,4.5,2,4.5,4.5
	s-2,4.5-4.5,4.5s-4.5-2-4.5-4.5S588.3,13.5,590.8,13.5z M590.8,31.5c2.5,0,4.5,2,4.5,4.5c0,2.5-2,4.5-4.5,4.5c0,0,0,0,0,0
	c-2.5,0-4.5-2-4.5-4.5S588.3,31.5,590.8,31.5z M590.8,49.5c2.5,0,4.5,2,4.5,4.5s-2,4.5-4.5,4.5s-4.5-2-4.5-4.5
	S588.3,49.5,590.8,49.5z M590.8,67.5c2.5,0,4.5,2,4.5,4.5c0,2.5-2,4.5-4.5,4.5c0,0,0,0,0,0c-2.5,0-4.5-2-4.5-4.5
	S588.3,67.5,590.8,67.5z M590.8,85.5c2.5,0,4.5,2,4.5,4.5s-2,4.5-4.5,4.5s-4.5-2-4.5-4.5S588.3,85.5,590.8,85.5z M590.8,103.5
	c2.5,0,4.5,2,4.5,4.5c0,2.5-2,4.5-4.5,4.5c0,0,0,0,0,0c-2.5,0-4.5-2-4.5-4.5S588.3,103.5,590.8,103.5z M590.8,121.5
	c2.5,0,4.5,2,4.5,4.5s-2,4.5-4.5,4.5s-4.5-2-4.5-4.5S588.3,121.5,590.8,121.5z M590.8,139.5c2.5,0,4.5,2,4.5,4.5
	c0,2.5-2,4.5-4.5,4.5c0,0,0,0,0,0c-2.5,0-4.5-2-4.5-4.5S588.3,139.5,590.8,139.5z M590.8,157.5c2.5,0,4.5,2,4.5,4.5s-2,4.5-4.5,4.5
	s-4.5-2-4.5-4.5S588.3,157.5,590.8,157.5z M590.8,175.5c2.5,0,4.5,2,4.5,4.5c0,2.5-2,4.5-4.5,4.5c0,0,0,0,0,0c-2.5,0-4.5-2-4.5-4.5
	S588.3,175.5,590.8,175.5z M590.8,193.5c2.5,0,4.5,2,4.5,4.5s-2,4.5-4.5,4.5s-4.5-2-4.5-4.5S588.3,193.5,590.8,193.5z M590.8,211.5
	c2.5,0,4.5,2,4.5,4.5c0,2.5-2,4.5-4.5,4.5c0,0,0,0,0,0c-2.5,0-4.5-2-4.5-4.5S588.3,211.5,590.8,211.5z M590.8,229.5
	c2.5,0,4.5,2,4.5,4.5s-2,4.5-4.5,4.5s-4.5-2-4.5-4.5S588.3,229.5,590.8,229.5z M590.8,247.5c2.5,0,4.5,2,4.5,4.5
	c0,2.5-2,4.5-4.5,4.5c0,0,0,0,0,0c-2.5,0-4.5-2-4.5-4.5S588.3,247.5,590.8,247.5z M590.8,265.5c2.5,0,4.5,2,4.5,4.5s-2,4.5-4.5,4.5
	s-4.5-2-4.5-4.5S588.3,265.5,590.8,265.5z M590.8,283.5c2.5,0,4.5,2,4.5,4.5c0,2.5-2,4.5-4.5,4.5c0,0,0,0,0,0c-2.5,0-4.5-2-4.5-4.5
	S588.3,283.5,590.8,283.5z M590.8,301.5c2.5,0,4.5,2,4.5,4.5s-2,4.5-4.5,4.5s-4.5-2-4.5-4.5S588.3,301.5,590.8,301.5z M590.8,319.5
	c2.5,0,4.5,2,4.5,4.5c0,2.5-2,4.5-4.5,4.5c0,0,0,0,0,0c-2.5,0-4.5-2-4.5-4.5S588.3,319.5,590.8,319.5z M590.8,337.5
	c2.5,0,4.5,2,4.5,4.5s-2,4.5-4.5,4.5s-4.5-2-4.5-4.5S588.3,337.5,590.8,337.5z M590.8,355.5c2.5,0,4.5,2,4.5,4.5
	c0,2.5-2,4.5-4.5,4.5c0,0,0,0,0,0c-2.5,0-4.5-2-4.5-4.5S588.3,355.5,590.8,355.5z M590.8,373.5c2.5,0,4.5,2,4.5,4.5s-2,4.5-4.5,4.5
	s-4.5-2-4.5-4.5S588.3,373.5,590.8,373.5z M590.8,391.5c2.5,0,4.5,2,4.5,4.5c0,2.5-2,4.5-4.5,4.5c0,0,0,0,0,0c-2.5,0-4.5-2-4.5-4.5
	S588.3,391.5,590.8,391.5z M590.8,409.5c2.5,0,4.5,2,4.5,4.5s-2,4.5-4.5,4.5s-4.5-2-4.5-4.5S588.3,409.5,590.8,409.5z M590.8,427.5
	c2.5,0,4.5,2,4.5,4.5c0,2.5-2,4.5-4.5,4.5c0,0,0,0,0,0c-2.5,0-4.5-2-4.5-4.5S588.3,427.5,590.8,427.5z M590.8,445.5
	c2.5,0,4.5,2,4.5,4.5s-2,4.5-4.5,4.5s-4.5-2-4.5-4.5S588.3,445.5,590.8,445.5z M590.8,463.5c2.5,0,4.5,2,4.5,4.5
	c0,2.5-2,4.5-4.5,4.5c0,0,0,0,0,0c-2.5,0-4.5-2-4.5-4.5S588.3,463.5,590.8,463.5z M590.8,481.5c2.5,0,4.5,2,4.5,4.5s-2,4.5-4.5,4.5
	s-4.5-2-4.5-4.5S588.3,481.5,590.8,481.5z M590.8,499.5c2.5,0,4.5,2,4.5,4.5c0,2.5-2,4.5-4.5,4.5c0,0,0,0,0,0c-2.5,0-4.5-2-4.5-4.5
	S588.3,499.5,590.8,499.5z M590.8,517.5c2.5,0,4.5,2,4.5,4.5s-2,4.5-4.5,4.5s-4.5-2-4.5-4.5S588.3,517.5,590.8,517.5z M590.8,535.5
	c2.5,0,4.5,2,4.5,4.5c0,2.5-2,4.5-4.5,4.5c0,0,0,0,0,0c-2.5,0-4.5-2-4.5-4.5S588.3,535.5,590.8,535.5z M590.8,553.5
	c2.5,0,4.5,2,4.5,4.5s-2,4.5-4.5,4.5s-4.5-2-4.5-4.5S588.3,553.5,590.8,553.5z M590.8,571.5c2.5,0,4.5,2,4.5,4.5
	c0,2.5-2,4.5-4.5,4.5c0,0,0,0,0,0c-2.5,0-4.5-2-4.5-4.5S588.3,571.5,590.8,571.5z M590.8,589.5c2.5,0,4.5,2,4.5,4.5s-2,4.5-4.5,4.5
	s-4.5-2-4.5-4.5S588.3,589.5,590.8,589.5z M590.8,607.5c2.5,0,4.5,2,4.5,4.5c0,2.5-2,4.5-4.5,4.5c0,0,0,0,0,0c-2.5,0-4.5-2-4.5-4.5
	S588.3,607.5,590.8,607.5z M590.8,625.5c2.5,0,4.5,2,4.5,4.5s-2,4.5-4.5,4.5s-4.5-2-4.5-4.5S588.3,625.5,590.8,625.5z M590.8,643.5
	c2.5,0,4.5,2,4.5,4.5c0,2.5-2,4.5-4.5,4.5c0,0,0,0,0,0c-2.5,0-4.5-2-4.5-4.5S588.3,643.5,590.8,643.5z M590.8,661.5
	c2.5,0,4.5,2,4.5,4.5s-2,4.5-4.5,4.5s-4.5-2-4.5-4.5S588.3,661.5,590.8,661.5z M590.8,679.5c2.5,0,4.5,2,4.5,4.5
	c0,2.5-2,4.5-4.5,4.5c0,0,0,0,0,0c-2.5,0-4.5-2-4.5-4.5S588.3,679.5,590.8,679.5z M590.8,697.5c2.5,0,4.5,2,4.5,4.5s-2,4.5-4.5,4.5
	s-4.5-2-4.5-4.5S588.3,697.5,590.8,697.5z M590.8,715.5c2.5,0,4.5,2,4.5,4.5c0,2.5-2,4.5-4.5,4.5c0,0,0,0,0,0c-2.5,0-4.5-2-4.5-4.5
	S588.3,715.5,590.8,715.5z M590.8,733.5c2.5,0,4.5,2,4.5,4.5s-2,4.5-4.5,4.5s-4.5-2-4.5-4.5S588.3,733.5,590.8,733.5z M590.8,751.5
	c2.5,0,4.5,2,4.5,4.5c0,2.5-2,4.5-4.5,4.5c0,0,0,0,0,0c-2.5,0-4.5-2-4.5-4.5S588.3,751.5,590.8,751.5z M590.8,769.5
	c2.5,0,4.5,2,4.5,4.5s-2,4.5-4.5,4.5s-4.5-2-4.5-4.5S588.3,769.5,590.8,769.5z M21.2,13.5L21.2,13.5c2.5,0,4.5,2,4.5,4.5
	s-2,4.5-4.5,4.5s-4.5-2-4.5-4.5C16.8,15.5,18.8,13.5,21.2,13.5z M21.2,31.5c2.5,0,4.5,2,4.5,4.5c0,2.5-2,4.5-4.5,4.5c0,0,0,0,0,0
	c-2.5,0-4.5-2-4.5-4.5S18.8,31.5,21.2,31.5z M21.2,49.5c2.5,0,4.5,2,4.5,4.5s-2,4.5-4.5,4.5s-4.5-2-4.5-4.5S18.8,49.5,21.2,49.5z
	 M21.2,67.5c2.5,0,4.5,2,4.5,4.5c0,2.5-2,4.5-4.5,4.5c0,0,0,0,0,0c-2.5,0-4.5-2-4.5-4.5S18.8,67.5,21.2,67.5z M21.2,85.5
	c2.5,0,4.5,2,4.5,4.5s-2,4.5-4.5,4.5s-4.5-2-4.5-4.5S18.8,85.5,21.2,85.5z M21.2,103.5c2.5,0,4.5,2,4.5,4.5c0,2.5-2,4.5-4.5,4.5
	c0,0,0,0,0,0c-2.5,0-4.5-2-4.5-4.5S18.8,103.5,21.2,103.5z M21.2,121.5c2.5,0,4.5,2,4.5,4.5s-2,4.5-4.5,4.5s-4.5-2-4.5-4.5
	S18.8,121.5,21.2,121.5z M21.2,139.5c2.5,0,4.5,2,4.5,4.5c0,2.5-2,4.5-4.5,4.5c0,0,0,0,0,0c-2.5,0-4.5-2-4.5-4.5
	S18.8,139.5,21.2,139.5z M21.2,157.5c2.5,0,4.5,2,4.5,4.5s-2,4.5-4.5,4.5s-4.5-2-4.5-4.5S18.8,157.5,21.2,157.5z M21.2,175.5
	c2.5,0,4.5,2,4.5,4.5c0,2.5-2,4.5-4.5,4.5c0,0,0,0,0,0c-2.5,0-4.5-2-4.5-4.5S18.8,175.5,21.2,175.5z M21.2,193.5
	c2.5,0,4.5,2,4.5,4.5s-2,4.5-4.5,4.5s-4.5-2-4.5-4.5S18.8,193.5,21.2,193.5z M21.2,211.5c2.5,0,4.5,2,4.5,4.5c0,2.5-2,4.5-4.5,4.5
	c0,0,0,0,0,0c-2.5,0-4.5-2-4.5-4.5S18.8,211.5,21.2,211.5z M21.2,229.5c2.5,0,4.5,2,4.5,4.5s-2,4.5-4.5,4.5s-4.5-2-4.5-4.5
	S18.8,229.5,21.2,229.5z M21.2,247.5c2.5,0,4.5,2,4.5,4.5c0,2.5-2,4.5-4.5,4.5c0,0,0,0,0,0c-2.5,0-4.5-2-4.5-4.5
	S18.8,247.5,21.2,247.5z M21.2,265.5c2.5,0,4.5,2,4.5,4.5s-2,4.5-4.5,4.5s-4.5-2-4.5-4.5S18.8,265.5,21.2,265.5z M21.2,283.5
	c2.5,0,4.5,2,4.5,4.5c0,2.5-2,4.5-4.5,4.5c0,0,0,0,0,0c-2.5,0-4.5-2-4.5-4.5S18.8,283.5,21.2,283.5z M21.2,301.5
	c2.5,0,4.5,2,4.5,4.5s-2,4.5-4.5,4.5s-4.5-2-4.5-4.5S18.8,301.5,21.2,301.5z M21.2,319.5c2.5,0,4.5,2,4.5,4.5c0,2.5-2,4.5-4.5,4.5
	c0,0,0,0,0,0c-2.5,0-4.5-2-4.5-4.5S18.8,319.5,21.2,319.5z M21.2,337.5c2.5,0,4.5,2,4.5,4.5s-2,4.5-4.5,4.5s-4.5-2-4.5-4.5
	S18.8,337.5,21.2,337.5z M21.2,355.5c2.5,0,4.5,2,4.5,4.5c0,2.5-2,4.5-4.5,4.5c0,0,0,0,0,0c-2.5,0-4.5-2-4.5-4.5
	S18.8,355.5,21.2,355.5z M21.2,373.5c2.5,0,4.5,2,4.5,4.5s-2,4.5-4.5,4.5s-4.5-2-4.5-4.5S18.8,373.5,21.2,373.5z M21.2,391.5
	c2.5,0,4.5,2,4.5,4.5c0,2.5-2,4.5-4.5,4.5c0,0,0,0,0,0c-2.5,0-4.5-2-4.5-4.5S18.8,391.5,21.2,391.5z M21.2,409.5
	c2.5,0,4.5,2,4.5,4.5s-2,4.5-4.5,4.5s-4.5-2-4.5-4.5S18.8,409.5,21.2,409.5z M21.2,427.5c2.5,0,4.5,2,4.5,4.5c0,2.5-2,4.5-4.5,4.5
	c0,0,0,0,0,0c-2.5,0-4.5-2-4.5-4.5S18.8,427.5,21.2,427.5z M21.2,445.5c2.5,0,4.5,2,4.5,4.5s-2,4.5-4.5,4.5s-4.5-2-4.5-4.5
	S18.8,445.5,21.2,445.5z M21.2,463.5c2.5,0,4.5,2,4.5,4.5c0,2.5-2,4.5-4.5,4.5c0,0,0,0,0,0c-2.5,0-4.5-2-4.5-4.5
	S18.8,463.5,21.2,463.5z M21.2,481.5c2.5,0,4.5,2,4.5,4.5s-2,4.5-4.5,4.5s-4.5-2-4.5-4.5S18.8,481.5,21.2,481.5z M21.2,499.5
	c2.5,0,4.5,2,4.5,4.5c0,2.5-2,4.5-4.5,4.5c0,0,0,0,0,0c-2.5,0-4.5-2-4.5-4.5S18.8,499.5,21.2,499.5z M21.2,517.5
	c2.5,0,4.5,2,4.5,4.5s-2,4.5-4.5,4.5s-4.5-2-4.5-4.5S18.8,517.5,21.2,517.5z M21.2,535.5c2.5,0,4.5,2,4.5,4.5c0,2.5-2,4.5-4.5,4.5
	c0,0,0,0,0,0c-2.5,0-4.5-2-4.5-4.5S18.8,535.5,21.2,535.5z M21.2,553.5c2.5,0,4.5,2,4.5,4.5s-2,4.5-4.5,4.5s-4.5-2-4.5-4.5
	S18.8,553.5,21.2,553.5z M21.2,571.5c2.5,0,4.5,2,4.5,4.5c0,2.5-2,4.5-4.5,4.5c0,0,0,0,0,0c-2.5,0-4.5-2-4.5-4.5
	S18.8,571.5,21.2,571.5z M21.2,589.5c2.5,0,4.5,2,4.5,4.5s-2,4.5-4.5,4.5s-4.5-2-4.5-4.5S18.8,589.5,21.2,589.5z M21.2,607.5
	c2.5,0,4.5,2,4.5,4.5c0,2.5-2,4.5-4.5,4.5c0,0,0,0,0,0c-2.5,0-4.5-2-4.5-4.5S18.8,607.5,21.2,607.5z M21.2,625.5
	c2.5,0,4.5,2,4.5,4.5s-2,4.5-4.5,4.5s-4.5-2-4.5-4.5S18.8,625.5,21.2,625.5z M21.2,643.5c2.5,0,4.5,2,4.5,4.5c0,2.5-2,4.5-4.5,4.5
	c0,0,0,0,0,0c-2.5,0-4.5-2-4.5-4.5S18.8,643.5,21.2,643.5z M21.2,661.5c2.5,0,4.5,2,4.5,4.5s-2,4.5-4.5,4.5s-4.5-2-4.5-4.5
	S18.8,661.5,21.2,661.5z M21.2,679.5c2.5,0,4.5,2,4.5,4.5c0,2.5-2,4.5-4.5,4.5c0,0,0,0,0,0c-2.5,0-4.5-2-4.5-4.5
	S18.8,679.5,21.2,679.5z M21.2,697.5c2.5,0,4.5,2,4.5,4.5s-2,4.5-4.5,4.5s-4.5-2-4.5-4.5S18.8,697.5,21.2,697.5z M21.2,715.5
	c2.5,0,4.5,2,4.5,4.5c0,2.5-2,4.5-4.5,4.5c0,0,0,0,0,0c-2.5,0-4.5-2-4.5-4.5S18.8,715.5,21.2,715.5z M21.2,733.5
	c2.5,0,4.5,2,4.5,4.5s-2,4.5-4.5,4.5s-4.5-2-4.5-4.5S18.8,733.5,21.2,733.5z"/>
<path class="st1" d="M36,660h540v66H36V660z M576,528.6H36v66h540V528.6z M576,69V8H36v61H576z M576,397.2H36v66h540V397.2z
	 M576,134.4H36v66h540V134.4z M576,265.8H36v66h540V265.8z"/>
<path d="M576.5,303h-1v-6h1V303z M576.5,273h-1v6h1V273z M576.5,381h-1v6h1V381z M576.5,249h-1v6h1V249z M576.5,261h-1v6h1V261z
	 M576.5,213h-1v6h1V213z M576.5,225h-1v6h1V225z M576.5,9h-1v6h1V9z M576.5,285h-1v6h1V285z M576.5,357h-1v6h1V357z M576.5,201h-1v6
	h1V201z M576.5,369h-1v6h1V369z M576.5,333h-1v6h1V333z M576.5,345h-1v6h1V345z M576.5,321h-1v6h1V321z M576.5,309h-1v6h1V309z
	 M576.5,33h-1v6h1V33z M576.5,69h-1v6h1V69z M576.5,57h-1v6h1V57z M576.5,189h-1v6h1V189z M576.5,81h-1v6h1V81z M576.5,45h-1v6h1V45
	z M576.5,21h-1v6h1V21z M576.5,393h-1v6h1V393z M576.5,93h-1v6h1V93z M576.5,153h-1v6h1V153z M576.5,105h-1v6h1V105z M576.5,177h-1
	v6h1V177z M576.5,165h-1v6h1V165z M576.5,117h-1v6h1V117z M576.5,141h-1v6h1V141z M576.5,129h-1v6h1V129z M576.5,237h-1v6h1V237z
	 M576.5,657h-1v6h1V657z M576.5,669h-1v6h1V669z M576.5,645h-1v6h1V645z M576.5,609h-1v6h1V609z M576.5,681h-1v6h1V681z M576.5,633
	h-1v6h1V633z M576.5,621h-1v6h1V621z M576.5,717h-1v6h1V717z M575.5,783h1v-6h-1V783z M576.5,765h-1v6h1V765z M576.5,741h-1v6h1V741
	z M576.5,597h-1v6h1V597z M576.5,705h-1v6h1V705z M576.5,693h-1v6h1V693z M576.5,729h-1v6h1V729z M576.5,417h-1v6h1V417z M576.5,465
	h-1v6h1V465z M576.5,453h-1v6h1V453z M576.5,477h-1v6h1V477z M576.5,441h-1v6h1V441z M576.5,489h-1v6h1V489z M576.5,405h-1v6h1V405z
	 M576.5,429h-1v6h1V429z M576.5,525h-1v6h1V525z M576.5,561h-1v6h1V561z M576.5,501h-1v6h1V501z M576.5,573h-1v6h1V573z M576.5,549
	h-1v6h1V549z M576.5,537h-1v6h1V537z M576.5,513h-1v6h1V513z M576.5,585h-1v6h1V585z M576.5,753h-1v6h1V753z M36.5,261h-1v6h1V261z
	 M36.5,285h-1v6h1V285z M36.5,249h-1v6h1V249z M36.5,273h-1v6h1V273z M36.5,237h-1v6h1V237z M36.5,201h-1v6h1V201z M36.5,225h-1v6h1
	V225z M36.5,213h-1v6h1V213z M36.5,297h-1v6h1V297z M36.5,357h-1v6h1V357z M36.5,369h-1v6h1V369z M36.5,189h-1v6h1V189z M36.5,345
	h-1v6h1V345z M36.5,309h-1v6h1V309z M36.5,333h-1v6h1V333z M36.5,321h-1v6h1V321z M36.5,765h-1v6h1V765z M36.5,57h-1v6h1V57z
	 M36.5,45h-1v6h1V45z M36.5,69h-1v6h1V69z M36.5,9h-1v6h1V9z M36.5,381h-1v6h1V381z M36.5,33h-1v6h1V33z M36.5,21h-1v6h1V21z
	 M36.5,105h-1v6h1V105z M36.5,93h-1v6h1V93z M36.5,165h-1v6h1V165z M36.5,141h-1v6h1V141z M36.5,153h-1v6h1V153z M36.5,177h-1v6h1
	V177z M36.5,129h-1v6h1V129z M36.5,117h-1v6h1V117z M36.5,81h-1v6h1V81z M36.5,633h-1v6h1V633z M36.5,657h-1v6h1V657z M36.5,645h-1
	v6h1V645z M36.5,585h-1v6h1V585z M36.5,669h-1v6h1V669z M36.5,597h-1v6h1V597z M36.5,621h-1v6h1V621z M36.5,609h-1v6h1V609z
	 M36.5,681h-1v6h1V681z M36.5,753h-1v6h1V753z M36.5,741h-1v6h1V741z M35.5,783h1v-6h-1V783z M36.5,717h-1v6h1V717z M36.5,705h-1v6
	h1V705z M36.5,693h-1v6h1V693z M36.5,729h-1v6h1V729z M36.5,561h-1v6h1V561z M36.5,453h-1v6h1V453z M36.5,477h-1v6h1V477z M36.5,573
	h-1v6h1V573z M36.5,441h-1v6h1V441z M36.5,405h-1v6h1V405z M36.5,429h-1v6h1V429z M36.5,417h-1v6h1V417z M36.5,465h-1v6h1V465z
	 M36.5,549h-1v6h1V549z M36.5,393h-1v6h1V393z M36.5,537h-1v6h1V537z M36.5,513h-1v6h1V513z M36.5,501h-1v6h1V501z M36.5,525h-1v6h1
	V525z M36.5,489h-1v6h1V489z"/>
</svg>
