<svg xmlns="http://www.w3.org/2000/svg" viewBox="0 0 189.7 215.9"><path d="M189.7 56.3h-60.5L97.6 0 67.3 52.5l-64.6-.8L33 104 0 159.5h60.4L92 215.9l30.2-52.3 64.8.8-30.4-52.5z" fill="#02176a"/><path d="M145.2 92.3l9.4 16.2 29-48.7h-77.2c-25.8.9-28.8 32.7-11.5 48.3-6.2-16-4.3-33.4 16-34.2h45.3l-11 18.4zm-38.6-35.9h18.7L97.6 7.1 59 73.9c-12.2 22.7 13.9 41.2 36 34-17-2.6-31-12.8-21.6-30.8l22.7-39.3 10.5 18.6zM56.1 72.1l9.3-16.2-56.6-.7L47.4 122c13.7 21.9 42.7 8.6 47.5-14.2-10.7 13.4-26.6 20.5-37.5 3.3L34.7 71.9l21.4.2zm-11.7 51.5L35 107.4 6.1 156h77.1c25.8-.9 28.8-32.6 11.5-48.2 6.2 16 4.4 33.3-16 34.1H33.5l10.9-18.3zm38.8 35.8H64.4l27.7 49.4 38.7-66.8c12.1-22.7-13.9-41.2-36.1-34 17 2.6 31.1 12.8 21.6 30.8L93.6 178l-10.4-18.6zm50.3-15.5l-9.3 16.2 56.6.7L142.2 94c-13.6-21.9-42.7-8.6-47.5 14.2 10.8-13.4 26.7-20.5 37.5-3.3l22.7 39.3-21.4-.3z" fill-rule="evenodd" fill="#f8d713"/></svg>