<?xml version="1.0" encoding="utf-8"?>
<!-- Generator: Adobe Illustrator 25.2.1, SVG Export Plug-In . SVG Version: 6.00 Build 0)  -->
<svg version="1.1" id="Layer_3" xmlns="http://www.w3.org/2000/svg" xmlns:xlink="http://www.w3.org/1999/xlink" x="0px" y="0px"
	 viewBox="0 0 508.2 9" style="enable-background:new 0 0 508.2 9;" xml:space="preserve">
<path d="M115.9,0.5c0,0.3-0.2,0.5-0.5,0.5c-0.3,0-0.5-0.2-0.5-0.5s0.2-0.5,0.5-0.5C115.7,0,115.9,0.2,115.9,0.5z M115.4,1.3
	c-0.3,0-0.5,0.2-0.5,0.5s0.2,0.5,0.5,0.5c0.3,0,0.5-0.2,0.5-0.5S115.7,1.3,115.4,1.3z M114.1,1.3c-0.3,0-0.5,0.2-0.5,0.5
	s0.2,0.5,0.5,0.5s0.5-0.2,0.5-0.5S114.4,1.3,114.1,1.3z M114.1,8c-0.3,0-0.5,0.2-0.5,0.5c0,0.3,0.2,0.5,0.5,0.5s0.5-0.2,0.5-0.5
	C114.6,8.2,114.4,8,114.1,8z M115.4,2.7c-0.3,0-0.5,0.2-0.5,0.5s0.2,0.5,0.5,0.5c0.3,0,0.5-0.2,0.5-0.5S115.7,2.7,115.4,2.7z
	 M115.4,4c-0.3,0-0.5,0.2-0.5,0.5c0,0.3,0.2,0.5,0.5,0.5c0.3,0,0.5-0.2,0.5-0.5C115.9,4.2,115.7,4,115.4,4z M115.4,5.3
	c-0.3,0-0.5,0.2-0.5,0.5s0.2,0.5,0.5,0.5c0.3,0,0.5-0.2,0.5-0.5S115.7,5.3,115.4,5.3z M115.4,6.6c-0.3,0-0.5,0.2-0.5,0.5
	s0.2,0.5,0.5,0.5c0.3,0,0.5-0.2,0.5-0.5S115.7,6.6,115.4,6.6z M115.4,8c-0.3,0-0.5,0.2-0.5,0.5c0,0.3,0.2,0.5,0.5,0.5
	c0.3,0,0.5-0.2,0.5-0.5C115.9,8.2,115.7,8,115.4,8z M116.7,8c-0.3,0-0.5,0.2-0.5,0.5s0.2,0.5,0.5,0.5s0.5-0.2,0.5-0.5S117,8,116.7,8
	z"/>
</svg>
