<svg id="Layer_1" data-name="Layer 1" xmlns="http://www.w3.org/2000/svg" viewBox="0 0 8.45 12"><path d="M1.26,2.42a.63.63,0,1,1-.63-.63A.63.63,0,0,1,1.26,2.42ZM.63,9a.63.63,0,1,0,.63.63A.63.63,0,0,0,.63,9Zm0-1.79a.63.63,0,1,0,.63.63A.63.63,0,0,0,.63,7.16Zm0-1.79A.63.63,0,1,0,1.26,6,.63.63,0,0,0,.63,5.37Zm0-1.79a.63.63,0,1,0,.63.63A.63.63,0,0,0,.63,3.58ZM7.82,1.79a.63.63,0,0,0,0,1.26.63.63,0,1,0,0-1.26ZM7.82,9a.63.63,0,1,0,0,1.26A.63.63,0,1,0,7.82,9Zm0-1.79a.63.63,0,0,0,0,1.26.63.63,0,0,0,0-1.26Zm0-1.79a.63.63,0,0,0,0,1.26.63.63,0,0,0,0-1.26Zm0-1.79a.63.63,0,0,0,0,1.26.63.63,0,0,0,0-1.26ZM2.43,7.16a.63.63,0,1,0,.62.63A.63.63,0,0,0,2.43,7.16Zm0,3.58a.63.63,0,1,0,.62.63A.63.63,0,0,0,2.43,10.74ZM2.43,0a.63.63,0,0,0,0,1.26A.63.63,0,0,0,3.05.63.63.63,0,0,0,2.43,0Zm1.8,5.37A.63.63,0,1,0,4.85,6,.63.63,0,0,0,4.23,5.37Zm0,5.37a.63.63,0,1,0,.62.63A.63.63,0,0,0,4.23,10.74ZM4.23,0a.63.63,0,0,0,0,1.26A.63.63,0,0,0,4.85.63.63.63,0,0,0,4.23,0ZM6,3.58a.63.63,0,1,0,.63.63A.63.63,0,0,0,6,3.58Zm0,7.16a.63.63,0,1,0,.63.63A.63.63,0,0,0,6,10.74ZM6,0A.63.63,0,0,0,5.4.63a.63.63,0,1,0,1.25,0A.63.63,0,0,0,6,0Z"/></svg>