<?xml version="1.0" encoding="utf-8"?>
<!-- Generator: Adobe Illustrator 25.2.1, SVG Export Plug-In . SVG Version: 6.00 Build 0)  -->
<svg version="1.1" id="Layer_3" xmlns="http://www.w3.org/2000/svg" xmlns:xlink="http://www.w3.org/1999/xlink" x="0px" y="0px"
	 viewBox="0 0 8.5 12" style="enable-background:new 0 0 8.5 12;" xml:space="preserve">
<path d="M2.4,1.8c-0.3,0-0.6,0.3-0.6,0.6S2.1,3,2.4,3s0.6-0.3,0.6-0.6S2.8,1.8,2.4,1.8z M2.4,10.7c-0.3,0-0.6,0.3-0.6,0.6
	S2.1,12,2.4,12s0.6-0.3,0.6-0.6S2.8,10.7,2.4,10.7z M4.9,0.6c0,0.3-0.3,0.6-0.6,0.6C3.9,1.3,3.6,1,3.6,0.6S3.9,0,4.2,0
	C4.6,0,4.9,0.3,4.9,0.6z M4.2,1.8c-0.3,0-0.6,0.3-0.6,0.6S3.9,3,4.2,3c0.3,0,0.6-0.3,0.6-0.6S4.6,1.8,4.2,1.8z M4.2,3.6
	c-0.3,0-0.6,0.3-0.6,0.6s0.3,0.6,0.6,0.6c0.3,0,0.6-0.3,0.6-0.6S4.6,3.6,4.2,3.6z M4.2,5.4C3.9,5.4,3.6,5.7,3.6,6s0.3,0.6,0.6,0.6
	c0.3,0,0.6-0.3,0.6-0.6S4.6,5.4,4.2,5.4z M4.2,7.2c-0.3,0-0.6,0.3-0.6,0.6c0,0.3,0.3,0.6,0.6,0.6c0.3,0,0.6-0.3,0.6-0.6
	C4.8,7.4,4.6,7.2,4.2,7.2z M4.2,9C3.9,9,3.6,9.2,3.6,9.6s0.3,0.6,0.6,0.6c0.3,0,0.6-0.3,0.6-0.6S4.6,9,4.2,9z M4.2,10.7
	c-0.3,0-0.6,0.3-0.6,0.6S3.9,12,4.2,12c0.3,0,0.6-0.3,0.6-0.6S4.6,10.7,4.2,10.7z M6,10.7c-0.3,0-0.6,0.3-0.6,0.6
	C5.4,11.7,5.6,12,6,12s0.6-0.3,0.6-0.6C6.6,11,6.3,10.7,6,10.7z"/>
</svg>
