<?xml version="1.0" encoding="utf-8"?>
<!-- Generator: Adobe Illustrator 25.2.3, SVG Export Plug-In . SVG Version: 6.00 Build 0)  -->
<svg version="1.1" id="Layer_1" xmlns="http://www.w3.org/2000/svg" xmlns:xlink="http://www.w3.org/1999/xlink" x="0px" y="0px"
	 viewBox="0 0 128.3 410.4" style="enable-background:new 0 0 128.3 410.4;" xml:space="preserve">
<style type="text/css">
	.st0{fill:#FFFFFF;stroke:#000000;stroke-miterlimit:10;}
</style>
<path class="st0" d="M5.7,15.7c0,0,7.6-15.2,24.6-15.2s33.2,56.9,30.3,70.6c-2.8,13.7-11.4,22.3-20.9,24.2c-9.5,1.9-18.5,8.5-8.5,10
	c10,1.4,6.2-0.5,10.4,5.2s4.5,33.8,8.1,57.3c5.2,34.1,20.4,86.7,26.5,100.5s19,46.9,20.9,48.8s14.2,30.8,21.3,39.8
	c7.4,9.4,16.6,30.3,0,40.3s-27.5,17.5-38.9,9c-11.4-8.5-28.9-44.5-38.4-74.4s-25.1-69.7-29.4-98.6c-4.3-28.9-11.4-64-11.4-98.6
	s0.5-27,2.4-65.4S5.7,15.7,5.7,15.7z"/>
</svg>
