<svg id="helpIcon" xmlns="http://www.w3.org/2000/svg" viewBox="0 0 40.24 57.51">
  <g id="que">
    <path id="que_fill" d="M20.51,2.52A14.7,14.7,0,0,0,9.58,6.71,14.85,14.85,0,0,0,5,17.51a5,5,0,0,0,10,0A4.92,4.92,0,0,1,16.51,14,5.11,5.11,0,0,1,20,12.51h.14A5.11,5.11,0,0,1,25,17.41a4.67,4.67,0,0,1-2,4.09,19,19,0,0,0-8,15.41v.6a5,5,0,0,0,4.24,5,6.31,6.31,0,1,0,1.52,0,4.93,4.93,0,0,0,4.24-5v-.6a9.25,9.25,0,0,1,4-7.4,15,15,0,0,0-8.5-27Z" fill="#fff"/>
    <path id="que_stroke" d="M20.51,0a17.5,17.5,0,0,0-12.7,4.9,17.68,17.68,0,0,0-5.3,12.6,7.5,7.5,0,0,0,15,0,2.49,2.49,0,0,1,.8-1.8,2.39,2.39,0,0,1,1.8-.7,2.57,2.57,0,0,1,2.4,2.4,2.49,2.49,0,0,1-1,2.1,21.74,21.74,0,0,0-9,17.4v.6a7.21,7.21,0,0,0,1.7,4.7,8.67,8.67,0,0,0-2.9,6.5,8.8,8.8,0,0,0,17.6,0,8.6,8.6,0,0,0-2.9-6.5,7.1,7.1,0,0,0,1.7-4.7v-.6a6.9,6.9,0,0,1,3-5.4,17.48,17.48,0,0,0,7-14.5A18.14,18.14,0,0,0,20.51,0ZM20,52.51a3.8,3.8,0,1,1,3.8-3.8h0A3.8,3.8,0,0,1,20,52.51Zm7.5-25a11.82,11.82,0,0,0-5,9.4v.6a2.5,2.5,0,0,1-5,0v-.6a16.58,16.58,0,0,1,7-13.4,7.2,7.2,0,0,0,3-6.2,7.61,7.61,0,0,0-7.3-7.3H20a7.61,7.61,0,0,0-5.2,2.1,7.48,7.48,0,0,0-2.3,5.4,2.5,2.5,0,0,1-5,0,12.36,12.36,0,0,1,3.8-9A12.11,12.11,0,0,1,20.41,5a12.5,12.5,0,0,1,7.1,22.5Z"/>
  </g>
  <g id="x">
    <path id="x_fill" d="M32.74,48.27A5,5,0,0,1,29,46.55L20.12,36.38,11.27,46.55A5,5,0,0,1,3.73,40l9.76-11.24L3.73,17.52A5,5,0,1,1,11.27,11l8.85,10.17L29,11A5,5,0,0,1,36,10.47a5,5,0,0,1,.49,7L26.74,28.75,36.51,40a5,5,0,0,1-3.77,8.28Z" fill="none"/>
    <path id="x_stroke" d="M7.5,11.74a2.5,2.5,0,0,1,1.89.86L20.12,24.94,30.85,12.6a2.49,2.49,0,0,1,1.89-.86,2.49,2.49,0,0,1,1.88,4.14L23.43,28.75,34.62,41.63a2.5,2.5,0,1,1-3.77,3.28L20.12,32.57,9.39,44.91a2.5,2.5,0,0,1-1.89.86,2.45,2.45,0,0,1-1.64-.62,2.5,2.5,0,0,1-.25-3.52l11.2-12.88L5.61,15.88A2.5,2.5,0,0,1,7.5,11.74m0-5h0A7.5,7.5,0,0,0,1.84,19.16l8.34,9.59-8.34,9.6a7.5,7.5,0,1,0,11.32,9.84l7-8,7,8A7.5,7.5,0,0,0,38.4,38.35l-8.34-9.6,8.34-9.59A7.5,7.5,0,1,0,27.08,9.32l-7,8-7-8A7.49,7.49,0,0,0,7.5,6.74Z" fill="none"/>
  </g>
</svg>
